<svg width="369" height="255" viewBox="0 0 369 255" fill="none" xmlns="http://www.w3.org/2000/svg">
<g filter="url(#filter0_ddd_1_209)">
<rect x="24.4405" y="8.43097" width="320.425" height="206.172" rx="26" fill="url(#paint0_linear_1_209)"/>
<mask id="mask0_1_209" style="mask-type:alpha" maskUnits="userSpaceOnUse" x="24" y="8" width="321" height="207">
<rect x="24.4405" y="8.43097" width="320.425" height="206.172" rx="26" fill="url(#paint1_linear_1_209)"/>
</mask>
<g mask="url(#mask0_1_209)">
<path d="M49.5606 170.166C49.6037 170.166 49.6408 170.183 49.6719 170.217L49.9733 170.547C49.7628 170.796 49.5056 170.988 49.2017 171.125C48.9003 171.261 48.5366 171.329 48.1107 171.329C47.7375 171.329 47.3989 171.265 47.0951 171.135C46.7936 171.006 46.5352 170.826 46.3199 170.593C46.1069 170.361 45.9418 170.084 45.8246 169.761C45.7074 169.438 45.6487 169.083 45.6487 168.695C45.6487 168.307 45.7098 167.952 45.8318 167.629C45.9562 167.306 46.1297 167.029 46.3522 166.796C46.5747 166.564 46.8403 166.384 47.1489 166.255C47.4599 166.125 47.8033 166.061 48.1789 166.061C48.545 166.061 48.8704 166.121 49.1551 166.24C49.4398 166.36 49.6874 166.519 49.898 166.718L49.6468 167.073C49.63 167.099 49.6085 167.121 49.5822 167.137C49.5582 167.154 49.5259 167.163 49.4853 167.163C49.4398 167.163 49.386 167.14 49.3238 167.094C49.2639 167.049 49.1838 166.999 49.0833 166.944C48.9852 166.886 48.8632 166.835 48.7172 166.789C48.5713 166.744 48.3895 166.721 48.1717 166.721C47.9157 166.721 47.6812 166.767 47.4683 166.857C47.2554 166.946 47.0711 167.075 46.9156 167.245C46.7625 167.413 46.6429 167.62 46.5567 167.866C46.473 168.11 46.4311 168.386 46.4311 168.695C46.4311 169.008 46.4754 169.287 46.5639 169.531C46.6524 169.775 46.7745 169.982 46.93 170.152C47.0855 170.322 47.2685 170.451 47.4791 170.54C47.6896 170.628 47.9169 170.672 48.161 170.672C48.3093 170.672 48.4421 170.664 48.5593 170.647C48.679 170.628 48.7878 170.601 48.8859 170.565C48.9864 170.529 49.0809 170.483 49.1694 170.428C49.258 170.371 49.3453 170.303 49.4314 170.224C49.4506 170.207 49.4709 170.194 49.4924 170.184C49.514 170.172 49.5367 170.166 49.5606 170.166ZM52.5574 169.653C52.2727 169.663 52.0311 169.686 51.8325 169.721C51.6339 169.755 51.4724 169.8 51.348 169.858C51.2236 169.915 51.1339 169.983 51.0788 170.062C51.0238 170.139 50.9963 170.225 50.9963 170.321C50.9963 170.412 51.0106 170.491 51.0394 170.558C51.0705 170.622 51.1111 170.676 51.1614 170.719C51.214 170.76 51.275 170.79 51.3444 170.809C51.4138 170.828 51.4892 170.838 51.5705 170.838C51.6782 170.838 51.7763 170.827 51.8648 170.805C51.9557 170.784 52.0406 170.754 52.1196 170.716C52.1986 170.675 52.2739 170.626 52.3457 170.568C52.4175 170.511 52.4881 170.445 52.5574 170.371V169.653ZM50.5046 168.135C50.708 167.941 50.9281 167.797 51.165 167.701C51.4042 167.605 51.6662 167.557 51.9509 167.557C52.1591 167.557 52.3433 167.592 52.5036 167.661C52.6639 167.728 52.7991 167.823 52.9092 167.945C53.0192 168.067 53.1018 168.213 53.1568 168.383C53.2142 168.553 53.2429 168.74 53.2429 168.946V171.272H52.9307C52.8613 171.272 52.8087 171.261 52.7728 171.239C52.7369 171.216 52.7082 171.172 52.6866 171.11L52.6113 170.791C52.518 170.877 52.4259 170.954 52.3349 171.021C52.244 171.085 52.1483 171.141 52.0478 171.189C51.9497 171.235 51.8445 171.269 51.732 171.293C51.6196 171.317 51.4951 171.329 51.3588 171.329C51.2152 171.329 51.08 171.31 50.9532 171.272C50.8288 171.231 50.7199 171.17 50.6266 171.089C50.5333 171.007 50.4592 170.906 50.4041 170.784C50.3515 170.662 50.3252 170.519 50.3252 170.357C50.3252 170.213 50.3634 170.075 50.44 169.944C50.519 169.81 50.6458 169.69 50.8204 169.585C50.9975 169.48 51.2272 169.394 51.5095 169.327C51.7942 169.26 52.1435 169.221 52.5574 169.212V168.946C52.5574 168.671 52.4988 168.465 52.3816 168.329C52.2644 168.193 52.0921 168.124 51.8648 168.124C51.7117 168.124 51.5825 168.143 51.4772 168.182C51.3743 168.22 51.2846 168.263 51.208 168.311C51.1339 168.356 51.0681 168.398 51.0106 168.437C50.9556 168.475 50.8982 168.494 50.8384 168.494C50.7905 168.494 50.7487 168.481 50.7128 168.455C50.6793 168.428 50.6518 168.397 50.6302 168.361L50.5046 168.135ZM54.8401 168.325C54.9574 168.086 55.0985 167.898 55.2636 167.762C55.4287 167.625 55.6273 167.557 55.8594 167.557C55.9383 167.557 56.0125 167.567 56.0819 167.586C56.1537 167.603 56.2159 167.629 56.2685 167.665L56.2219 168.193C56.2051 168.257 56.1656 168.289 56.1034 168.289C56.0699 168.289 56.0197 168.283 55.9527 168.271C55.8857 168.257 55.8139 168.25 55.7374 168.25C55.6249 168.25 55.5256 168.267 55.4395 168.3C55.3534 168.331 55.2756 168.379 55.2062 168.444C55.1392 168.506 55.0794 168.584 55.0268 168.677C54.9741 168.768 54.9251 168.872 54.8796 168.989V171.272H54.1798V167.625H54.5817C54.6583 167.625 54.7097 167.64 54.7361 167.669C54.7648 167.695 54.7851 167.743 54.7971 167.812L54.8401 168.325ZM59.0329 168.508C58.9181 168.358 58.7936 168.252 58.6597 168.193C58.5281 168.133 58.3797 168.103 58.2146 168.103C57.894 168.103 57.6452 168.219 57.4682 168.451C57.2935 168.681 57.2062 169.017 57.2062 169.459C57.2062 169.691 57.2253 169.89 57.2636 170.055C57.3043 170.218 57.3617 170.352 57.4359 170.457C57.5124 170.56 57.6057 170.637 57.7158 170.687C57.8258 170.735 57.9503 170.759 58.089 170.759C58.2924 170.759 58.4683 170.713 58.6166 170.622C58.7649 170.531 58.9037 170.403 59.0329 170.238V168.508ZM59.7363 165.975V171.272H59.3128C59.2147 171.272 59.1537 171.225 59.1298 171.132L59.0688 170.712C58.9133 170.896 58.7362 171.044 58.5376 171.157C58.3415 171.267 58.1142 171.322 57.8558 171.322C57.6476 171.322 57.4586 171.281 57.2887 171.2C57.1212 171.119 56.9777 171 56.858 170.845C56.7384 170.687 56.6463 170.492 56.5817 170.26C56.5171 170.028 56.4848 169.761 56.4848 169.459C56.4848 169.189 56.5207 168.938 56.5925 168.706C56.6642 168.474 56.7683 168.273 56.9047 168.103C57.0411 167.933 57.2062 167.8 57.4 167.704C57.5938 167.606 57.8127 167.557 58.0567 167.557C58.2769 167.557 58.4635 167.593 58.6166 167.665C58.7721 167.737 58.9109 167.838 59.0329 167.97V165.975H59.7363ZM63.228 168.088C63.3811 167.933 63.5498 167.807 63.734 167.712C63.9206 167.616 64.1348 167.568 64.3764 167.568C64.5774 167.568 64.7532 167.602 64.904 167.669C65.0571 167.736 65.1851 167.83 65.288 167.952C65.3909 168.072 65.4686 168.216 65.5213 168.386C65.5739 168.556 65.6002 168.744 65.6002 168.95V171.272H64.8968V168.95C64.8968 168.689 64.837 168.487 64.7174 168.343C64.5977 168.197 64.4147 168.124 64.1683 168.124C63.9888 168.124 63.8201 168.167 63.6622 168.254C63.5067 168.337 63.362 168.452 63.228 168.598V171.272H62.5281V165.975H63.228V168.088ZM68.0986 167.568C68.3666 167.568 68.6082 167.612 68.8235 167.701C69.0413 167.787 69.2255 167.913 69.3762 168.078C69.5294 168.24 69.6466 168.438 69.7279 168.67C69.8093 168.9 69.85 169.158 69.85 169.445C69.85 169.732 69.8093 169.992 69.7279 170.224C69.6466 170.456 69.5294 170.653 69.3762 170.816C69.2255 170.979 69.0413 171.104 68.8235 171.193C68.6082 171.279 68.3666 171.322 68.0986 171.322C67.8282 171.322 67.5842 171.279 67.3665 171.193C67.1511 171.104 66.9669 170.979 66.8138 170.816C66.6606 170.653 66.5422 170.456 66.4585 170.224C66.3771 169.992 66.3364 169.732 66.3364 169.445C66.3364 169.158 66.3771 168.9 66.4585 168.67C66.5422 168.438 66.6606 168.24 66.8138 168.078C66.9669 167.913 67.1511 167.787 67.3665 167.701C67.5842 167.612 67.8282 167.568 68.0986 167.568ZM68.0986 170.777C68.4431 170.777 68.7003 170.66 68.8702 170.428C69.0401 170.196 69.125 169.87 69.125 169.449C69.125 169.028 69.0401 168.701 68.8702 168.469C68.7003 168.234 68.4431 168.117 68.0986 168.117C67.7493 168.117 67.4885 168.234 67.3162 168.469C67.1463 168.701 67.0614 169.028 67.0614 169.449C67.0614 169.87 67.1463 170.196 67.3162 170.428C67.4885 170.66 67.7493 170.777 68.0986 170.777ZM71.3489 165.975V171.272H70.6455V165.975H71.3489ZM74.6992 168.508C74.5844 168.358 74.4599 168.252 74.326 168.193C74.1944 168.133 74.046 168.103 73.8809 168.103C73.5603 168.103 73.3115 168.219 73.1345 168.451C72.9598 168.681 72.8725 169.017 72.8725 169.459C72.8725 169.691 72.8916 169.89 72.9299 170.055C72.9706 170.218 73.028 170.352 73.1022 170.457C73.1787 170.56 73.272 170.637 73.3821 170.687C73.4921 170.735 73.6166 170.759 73.7553 170.759C73.9587 170.759 74.1346 170.713 74.2829 170.622C74.4312 170.531 74.57 170.403 74.6992 170.238V168.508ZM75.4026 165.975V171.272H74.9791C74.881 171.272 74.82 171.225 74.7961 171.132L74.7351 170.712C74.5796 170.896 74.4025 171.044 74.2039 171.157C74.0077 171.267 73.7805 171.322 73.5221 171.322C73.3139 171.322 73.1249 171.281 72.955 171.2C72.7875 171.119 72.644 171 72.5243 170.845C72.4047 170.687 72.3126 170.492 72.248 170.26C72.1834 170.028 72.1511 169.761 72.1511 169.459C72.1511 169.189 72.187 168.938 72.2588 168.706C72.3305 168.474 72.4346 168.273 72.571 168.103C72.7074 167.933 72.8725 167.8 73.0663 167.704C73.2601 167.606 73.479 167.557 73.723 167.557C73.9431 167.557 74.1298 167.593 74.2829 167.665C74.4384 167.737 74.5772 167.838 74.6992 167.97V165.975H75.4026ZM78.7943 169.043C78.7943 168.904 78.7739 168.776 78.7333 168.659C78.695 168.542 78.6376 168.44 78.561 168.354C78.4844 168.268 78.3911 168.201 78.2811 168.153C78.171 168.105 78.0442 168.081 77.9007 168.081C77.6064 168.081 77.3743 168.166 77.2044 168.336C77.0369 168.506 76.9305 168.742 76.885 169.043H78.7943ZM79.3721 170.751C79.286 170.852 79.1867 170.939 79.0742 171.013C78.9618 171.085 78.8421 171.144 78.7153 171.189C78.5885 171.235 78.4569 171.268 78.3206 171.29C78.1866 171.311 78.0538 171.322 77.9222 171.322C77.671 171.322 77.4377 171.28 77.2224 171.196C77.0094 171.11 76.824 170.986 76.6661 170.823C76.5106 170.658 76.3885 170.455 76.3 170.213C76.2139 169.969 76.1708 169.689 76.1708 169.373C76.1708 169.12 76.2103 168.884 76.2892 168.666C76.3682 168.446 76.4807 168.255 76.6266 168.092C76.7749 167.929 76.9556 167.801 77.1685 167.708C77.3815 167.615 77.6207 167.568 77.8863 167.568C78.1088 167.568 78.3134 167.605 78.5 167.679C78.689 167.751 78.8517 167.856 78.9881 167.995C79.1245 168.134 79.2309 168.305 79.3075 168.508C79.3865 168.712 79.4259 168.944 79.4259 169.205C79.4259 169.312 79.414 169.385 79.39 169.424C79.3661 169.459 79.3219 169.477 79.2573 169.477H76.8671C76.8742 169.695 76.9053 169.885 76.9604 170.048C77.0154 170.208 77.0908 170.342 77.1865 170.45C77.2846 170.558 77.4006 170.638 77.5346 170.69C77.6686 170.743 77.8181 170.769 77.9832 170.769C78.1387 170.769 78.2727 170.751 78.3852 170.716C78.5 170.68 78.5981 170.641 78.6794 170.601C78.7632 170.558 78.8326 170.518 78.8876 170.482C78.945 170.446 78.9953 170.428 79.0383 170.428C79.0958 170.428 79.14 170.45 79.1711 170.493L79.3721 170.751ZM80.8385 168.325C80.9557 168.086 81.0969 167.898 81.262 167.762C81.4271 167.625 81.6256 167.557 81.8577 167.557C81.9367 167.557 82.0109 167.567 82.0802 167.586C82.152 167.603 82.2142 167.629 82.2669 167.665L82.2202 168.193C82.2035 168.257 82.164 168.289 82.1018 168.289C82.0683 168.289 82.018 168.283 81.951 168.271C81.884 168.257 81.8123 168.25 81.7357 168.25C81.6233 168.25 81.524 168.267 81.4378 168.3C81.3517 168.331 81.2739 168.379 81.2046 168.444C81.1376 168.506 81.0777 168.584 81.0251 168.677C80.9725 168.768 80.9234 168.872 80.878 168.989V171.272H80.1781V167.625H80.5801C80.6567 167.625 80.7081 167.64 80.7344 167.669C80.7631 167.695 80.7835 167.743 80.7954 167.812L80.8385 168.325Z" fill="white"/>
<path d="M237.788 188.244C237.788 217.101 214.396 240.494 185.539 240.494C156.683 240.494 133.29 217.101 133.29 188.244C133.29 173.03 139.793 159.335 150.17 149.786C159.476 141.224 171.897 135.995 185.539 135.995C214.396 135.995 237.788 159.388 237.788 188.244Z" fill="white" fill-opacity="0.12"/>
<path d="M237.788 188.244C237.788 217.101 214.396 240.494 185.539 240.494H336.334C307.477 240.494 284.085 217.101 284.085 188.244C284.085 184.558 284.466 180.962 285.192 177.491C282.732 177.847 280.216 178.031 277.657 178.031C252.296 178.031 231.155 159.962 226.405 135.995H192.323H185.539C214.396 135.995 237.788 159.388 237.788 188.244Z" fill="white" fill-opacity="0.12"/>
<path d="M226.405 135.995C225.751 132.692 225.407 129.277 225.407 125.782C225.407 121.191 226 116.739 227.111 112.497C222.745 120.33 209.675 135.995 192.323 135.995H226.405Z" fill="white" fill-opacity="0.12"/>
<path fill-rule="evenodd" clip-rule="evenodd" d="M336.334 240.494C365.19 240.494 388.583 217.101 388.583 188.244C388.583 159.388 365.19 135.995 336.334 135.995C333.775 135.995 331.259 136.179 328.798 136.535C324.344 157.823 306.934 174.351 285.192 177.491C284.466 180.962 284.085 184.558 284.085 188.244C284.085 217.101 307.477 240.494 336.334 240.494Z" fill="white" fill-opacity="0.12"/>
<path d="M328.798 136.535C324.344 157.823 306.934 174.351 285.192 177.491C289.646 156.203 307.057 139.675 328.798 136.535Z" fill="white" fill-opacity="0.12"/>
<path d="M329.906 125.782C329.906 96.9252 306.513 73.5324 277.657 73.5324C253.391 73.5324 232.989 90.0743 227.111 112.497C226 116.739 225.407 121.191 225.407 125.782C225.407 129.277 225.751 132.692 226.405 135.995C231.155 159.962 252.296 178.031 277.657 178.031C280.216 178.031 282.732 177.847 285.192 177.491C289.646 156.203 307.057 139.675 328.798 136.535C329.524 133.064 329.906 129.468 329.906 125.782Z" fill="white" fill-opacity="0.12"/>
</g>
<path d="M50.3165 36.688C51.2655 36.688 52.0303 36.8387 52.6109 37.1402C53.1915 37.4305 53.4818 37.8212 53.4818 38.3125C53.4818 38.5581 53.4092 38.7758 53.2641 38.9656C53.1189 39.1443 52.9291 39.2336 52.6946 39.2336C52.516 39.2336 52.3709 39.2113 52.2592 39.1666C52.1476 39.1108 52.0359 39.0438 51.9243 38.9656C51.8238 38.8763 51.7233 38.8037 51.6228 38.7479C51.5112 38.6921 51.3437 38.6419 51.1204 38.5972C50.9082 38.5525 50.7352 38.5302 50.6012 38.5302C49.7638 38.5302 49.1051 38.7926 48.625 39.3173C48.1561 39.8309 47.9216 40.5064 47.9216 41.3438C47.9216 42.1477 48.1617 42.8176 48.6417 43.3535C49.1218 43.8782 49.7359 44.1406 50.484 44.1406C51.0311 44.1406 51.4386 44.0736 51.7065 43.9396C51.7735 43.9062 51.8629 43.8503 51.9745 43.7722C52.0973 43.6829 52.209 43.6159 52.3095 43.5712C52.4099 43.5265 52.5328 43.5042 52.6779 43.5042C52.957 43.5042 53.1747 43.5935 53.331 43.7722C53.4985 43.9508 53.5823 44.1797 53.5823 44.4588C53.5823 44.7268 53.426 44.978 53.1133 45.2125C52.8007 45.4469 52.3876 45.6367 51.874 45.7819C51.3604 45.9159 50.8133 45.9828 50.2328 45.9828C49.3731 45.9828 48.6138 45.7819 47.9551 45.3799C47.3075 44.978 46.8051 44.4253 46.4478 43.7219C46.0905 43.0074 45.9119 42.2147 45.9119 41.3438C45.9119 40.4394 46.0961 39.6355 46.4646 38.9321C46.8442 38.2288 47.3689 37.6817 48.0388 37.2909C48.7087 36.889 49.468 36.688 50.3165 36.688ZM57.2106 44.7938C57.2106 45.0841 57.1101 45.3297 56.9091 45.5307C56.7193 45.7205 56.4793 45.8154 56.189 45.8154C55.9099 45.8154 55.6754 45.7205 55.4856 45.5307C55.2958 45.3297 55.2009 45.0841 55.2009 44.7938V34.4438C55.2009 34.1535 55.2958 33.9135 55.4856 33.7237C55.6866 33.5227 55.9322 33.4222 56.2225 33.4222C56.5016 33.4222 56.7361 33.5227 56.9259 33.7237C57.1157 33.9135 57.2106 34.1535 57.2106 34.4438V44.7938ZM67.992 41.3438C67.992 42.237 67.7911 43.0409 67.3891 43.7554C66.9872 44.4588 66.4345 45.0059 65.7311 45.3967C65.0389 45.7875 64.2741 45.9828 63.4367 45.9828C62.5882 45.9828 61.8178 45.7875 61.1256 45.3967C60.4333 45.0059 59.8863 44.4588 59.4843 43.7554C59.0824 43.0409 58.8814 42.237 58.8814 41.3438C58.8814 40.4506 59.0824 39.6523 59.4843 38.9489C59.8863 38.2343 60.4333 37.6817 61.1256 37.2909C61.8178 36.889 62.5882 36.688 63.4367 36.688C64.2741 36.688 65.0389 36.889 65.7311 37.2909C66.4345 37.6817 66.9872 38.2343 67.3891 38.9489C67.7911 39.6523 67.992 40.4506 67.992 41.3438ZM65.9823 41.3438C65.9823 40.7967 65.8651 40.311 65.6306 39.8868C65.4073 39.4513 65.1003 39.1164 64.7095 38.8819C64.3299 38.6474 63.9057 38.5302 63.4367 38.5302C62.9678 38.5302 62.5379 38.6474 62.1472 38.8819C61.7676 39.1164 61.4605 39.4513 61.2261 39.8868C61.0028 40.311 60.8911 40.7967 60.8911 41.3438C60.8911 41.8909 61.0028 42.3765 61.2261 42.8008C61.4605 43.2251 61.7676 43.5545 62.1472 43.7889C62.5379 44.0234 62.9678 44.1406 63.4367 44.1406C63.9057 44.1406 64.3299 44.0234 64.7095 43.7889C65.1003 43.5545 65.4073 43.2251 65.6306 42.8008C65.8651 42.3765 65.9823 41.8909 65.9823 41.3438ZM76.3199 36.8555C76.6102 36.8555 76.8502 36.9559 77.04 37.1569C77.2298 37.3467 77.3247 37.5868 77.3247 37.8771V42.1309C77.3247 43.3367 76.9898 44.2802 76.3199 44.9612C75.6611 45.6423 74.7177 45.9828 73.4895 45.9828C72.2614 45.9828 71.318 45.6423 70.6592 44.9612C70.0005 44.2802 69.6711 43.3367 69.6711 42.1309V37.8771C69.6711 37.5868 69.766 37.3467 69.9558 37.1569C70.1456 36.9559 70.3857 36.8555 70.676 36.8555C70.9663 36.8555 71.2063 36.9559 71.3961 37.1569C71.5859 37.3467 71.6808 37.5868 71.6808 37.8771V42.1309C71.6808 42.812 71.8315 43.32 72.133 43.6549C72.4345 43.9787 72.8866 44.1406 73.4895 44.1406C74.1036 44.1406 74.5614 43.9787 74.8628 43.6549C75.1643 43.32 75.315 42.812 75.315 42.1309V37.8771C75.315 37.5868 75.4099 37.3467 75.5997 37.1569C75.7895 36.9559 76.0296 36.8555 76.3199 36.8555ZM86.7521 33.4222C87.0424 33.4222 87.2825 33.5171 87.4723 33.7069C87.6621 33.8967 87.757 34.1424 87.757 34.4438V44.7938C87.757 45.0841 87.6621 45.3297 87.4723 45.5307C87.2825 45.7205 87.0424 45.8154 86.7521 45.8154C86.4618 45.8154 86.2218 45.7205 86.032 45.5307C85.8533 45.3409 85.7584 45.1008 85.7473 44.8105C85.4681 45.1343 85.0885 45.4134 84.6084 45.6479C84.1395 45.8712 83.6427 45.9828 83.1179 45.9828C82.3475 45.9828 81.6497 45.7875 81.0245 45.3967C80.3992 44.9947 79.9024 44.4421 79.534 43.7387C79.1767 43.0353 78.998 42.237 78.998 41.3438C78.998 40.4506 79.1767 39.6523 79.534 38.9489C79.8912 38.2343 80.3769 37.6817 80.991 37.2909C81.6162 36.889 82.3029 36.688 83.0509 36.688C83.5868 36.688 84.0893 36.7885 84.5582 36.9894C85.0271 37.1792 85.4235 37.4249 85.7473 37.7263V34.4438C85.7473 34.1535 85.8422 33.9135 86.032 33.7237C86.2218 33.5227 86.4618 33.4222 86.7521 33.4222ZM83.3691 44.1406C84.0949 44.1406 84.6866 43.8782 85.1444 43.3535C85.6021 42.8176 85.831 42.1477 85.831 41.3438C85.831 40.5399 85.6021 39.87 85.1444 39.3341C84.6866 38.7982 84.0949 38.5302 83.3691 38.5302C82.6546 38.5302 82.0684 38.7982 81.6106 39.3341C81.1529 39.87 80.924 40.5399 80.924 41.3438C80.924 42.1477 81.1473 42.8176 81.5939 43.3535C82.0517 43.8782 82.6434 44.1406 83.3691 44.1406ZM93.8371 36.688C94.7861 36.688 95.5509 36.8387 96.1315 37.1402C96.7121 37.4305 97.0024 37.8212 97.0024 38.3125C97.0024 38.5581 96.9298 38.7758 96.7847 38.9656C96.6395 39.1443 96.4497 39.2336 96.2152 39.2336C96.0366 39.2336 95.8915 39.2113 95.7798 39.1666C95.6682 39.1108 95.5565 39.0438 95.4449 38.9656C95.3444 38.8763 95.2439 38.8037 95.1434 38.7479C95.0318 38.6921 94.8643 38.6419 94.641 38.5972C94.4288 38.5525 94.2558 38.5302 94.1218 38.5302C93.2844 38.5302 92.6257 38.7926 92.1456 39.3173C91.6767 39.8309 91.4422 40.5064 91.4422 41.3438C91.4422 42.1477 91.6823 42.8176 92.1623 43.3535C92.6424 43.8782 93.2565 44.1406 94.0046 44.1406C94.5517 44.1406 94.9592 44.0736 95.2271 43.9396C95.2941 43.9062 95.3835 43.8503 95.4951 43.7722C95.6179 43.6829 95.7296 43.6159 95.8301 43.5712C95.9305 43.5265 96.0534 43.5042 96.1985 43.5042C96.4776 43.5042 96.6953 43.5935 96.8516 43.7722C97.0191 43.9508 97.1029 44.1797 97.1029 44.4588C97.1029 44.7268 96.9466 44.978 96.6339 45.2125C96.3213 45.4469 95.9082 45.6367 95.3946 45.7819C94.881 45.9159 94.3339 45.9828 93.7534 45.9828C92.8937 45.9828 92.1344 45.7819 91.4757 45.3799C90.8281 44.978 90.3257 44.4253 89.9684 43.7219C89.6111 43.0074 89.4325 42.2147 89.4325 41.3438C89.4325 40.4394 89.6167 39.6355 89.9852 38.9321C90.3648 38.2288 90.8895 37.6817 91.5594 37.2909C92.2293 36.889 92.9886 36.688 93.8371 36.688ZM105.806 36.688C106.096 36.688 106.336 36.7829 106.526 36.9727C106.716 37.1625 106.811 37.4081 106.811 37.7096V44.7938C106.811 45.0841 106.716 45.3297 106.526 45.5307C106.336 45.7205 106.096 45.8154 105.806 45.8154C105.515 45.8154 105.275 45.7205 105.086 45.5307C104.907 45.3409 104.812 45.1008 104.801 44.8105C104.522 45.1343 104.142 45.4134 103.662 45.6479C103.193 45.8712 102.696 45.9828 102.171 45.9828C101.401 45.9828 100.703 45.7875 100.078 45.3967C99.4528 44.9947 98.9559 44.4421 98.5875 43.7387C98.2302 43.0353 98.0516 42.237 98.0516 41.3438C98.0516 40.4506 98.2302 39.6523 98.5875 38.9489C98.9448 38.2343 99.4305 37.6817 100.045 37.2909C100.67 36.889 101.356 36.688 102.104 36.688C102.64 36.688 103.143 36.7885 103.612 36.9894C104.081 37.1792 104.477 37.4249 104.801 37.7263V37.7096C104.801 37.4193 104.896 37.1792 105.086 36.9894C105.275 36.7885 105.515 36.688 105.806 36.688ZM102.423 44.1406C103.148 44.1406 103.74 43.8782 104.198 43.3535C104.656 42.8176 104.885 42.1477 104.885 41.3438C104.885 40.5399 104.656 39.87 104.198 39.3341C103.74 38.7982 103.148 38.5302 102.423 38.5302C101.708 38.5302 101.122 38.7982 100.664 39.3341C100.206 39.87 99.9775 40.5399 99.9775 41.3438C99.9775 42.1477 100.201 42.8176 100.647 43.3535C101.105 43.8782 101.697 44.1406 102.423 44.1406ZM108.469 44.4253C108.369 44.2913 108.319 44.1239 108.319 43.9229C108.319 43.6326 108.464 43.387 108.754 43.186C108.91 43.0855 109.072 43.0353 109.24 43.0353C109.474 43.0353 109.697 43.1414 109.91 43.3535C110.245 43.6996 110.591 43.9564 110.948 44.1239C111.316 44.2913 111.757 44.3751 112.271 44.3751C113.142 44.3416 113.577 44.0122 113.577 43.387C113.577 43.0632 113.427 42.8176 113.125 42.6501C112.835 42.4826 112.377 42.3151 111.752 42.1477C111.104 41.969 110.574 41.7904 110.161 41.6117C109.759 41.4331 109.407 41.1651 109.106 40.8079C108.815 40.4394 108.67 39.9482 108.67 39.3341C108.67 38.7982 108.821 38.3348 109.122 37.944C109.435 37.5421 109.837 37.2351 110.328 37.0229C110.831 36.7996 111.361 36.688 111.919 36.688C112.489 36.688 113.058 36.794 113.628 37.0062C114.197 37.2183 114.644 37.5309 114.967 37.944C115.112 38.1227 115.185 38.3237 115.185 38.547C115.185 38.8037 115.079 39.0159 114.867 39.1834C114.711 39.3062 114.532 39.3676 114.331 39.3676C114.085 39.3676 113.884 39.2894 113.728 39.1331C113.527 38.8875 113.265 38.6921 112.941 38.547C112.628 38.4018 112.271 38.3292 111.869 38.3292C111.021 38.3292 110.596 38.6363 110.596 39.2503C110.596 39.496 110.674 39.6969 110.831 39.8533C110.987 39.9984 111.182 40.1156 111.417 40.205C111.663 40.2831 112.003 40.3836 112.438 40.5064C113.041 40.6739 113.544 40.8469 113.946 41.0256C114.348 41.2042 114.688 41.4778 114.967 41.8462C115.246 42.2147 115.386 42.7003 115.386 43.3032C115.386 43.8503 115.224 44.3304 114.9 44.7435C114.577 45.1455 114.158 45.4525 113.644 45.6646C113.142 45.8768 112.623 45.9828 112.087 45.9828C111.35 45.9828 110.663 45.86 110.027 45.6144C109.39 45.3688 108.871 44.9724 108.469 44.4253ZM121.774 36.688C122.879 36.688 123.644 37.0285 124.068 37.7096C124.493 38.3795 124.705 39.3118 124.705 40.5064V44.7938C124.705 45.0841 124.61 45.3297 124.42 45.5307C124.23 45.7205 123.99 45.8154 123.7 45.8154C123.41 45.8154 123.17 45.7205 122.98 45.5307C122.79 45.3297 122.695 45.0841 122.695 44.7938V40.5064C122.695 39.8923 122.572 39.4122 122.327 39.0661C122.092 38.7088 121.673 38.5302 121.07 38.5302C120.445 38.5302 119.954 38.72 119.597 39.0996C119.251 39.4681 119.078 39.937 119.078 40.5064V44.7938C119.078 45.0841 118.983 45.3297 118.793 45.5307C118.603 45.7205 118.363 45.8154 118.073 45.8154C117.782 45.8154 117.542 45.7205 117.353 45.5307C117.163 45.3297 117.068 45.0841 117.068 44.7938V34.4438C117.068 34.1535 117.163 33.9135 117.353 33.7237C117.542 33.5227 117.782 33.4222 118.073 33.4222C118.363 33.4222 118.603 33.5227 118.793 33.7237C118.983 33.9135 119.078 34.1535 119.078 34.4438V38.145C119.379 37.7431 119.759 37.4025 120.216 37.1234C120.685 36.8331 121.204 36.688 121.774 36.688Z" fill="white"/>
<path d="M47.8854 55.1385C48.0855 55.1385 48.2599 55.1142 48.4087 55.0655C48.5574 55.0141 48.6804 54.9425 48.7778 54.8505C48.8779 54.7559 48.9522 54.6423 49.0009 54.5098C49.0496 54.3746 49.0739 54.2245 49.0739 54.0595C49.0739 53.9027 49.0496 53.7607 49.0009 53.6336C48.9522 53.5065 48.8792 53.3983 48.7818 53.3091C48.6845 53.2198 48.5614 53.1522 48.4127 53.1062C48.264 53.0576 48.0882 53.0332 47.8854 53.0332H47.07V55.1385H47.8854ZM47.8854 52.1895C48.2775 52.1895 48.6169 52.2354 48.9035 52.3274C49.1902 52.4193 49.4268 52.5478 49.6134 52.7128C49.8 52.8777 49.9379 53.0751 50.0272 53.305C50.1191 53.5349 50.1651 53.7864 50.1651 54.0595C50.1651 54.3435 50.1178 54.6044 50.0231 54.8424C49.9285 55.0777 49.7865 55.2805 49.5972 55.4509C49.4079 55.6212 49.1699 55.7537 48.8833 55.8484C48.5993 55.9431 48.2667 55.9904 47.8854 55.9904H47.07V58.0551H45.9788V52.1895H47.8854ZM52.7745 54.9803C52.9801 54.9803 53.1586 54.9546 53.31 54.9032C53.4641 54.8519 53.5899 54.7816 53.6873 54.6923C53.7873 54.6004 53.8617 54.4922 53.9104 54.3678C53.959 54.2434 53.9834 54.1068 53.9834 53.9581C53.9834 53.6606 53.8847 53.4321 53.6873 53.2725C53.4925 53.113 53.1937 53.0332 52.7908 53.0332H52.0931V54.9803H52.7745ZM55.5816 58.0551H54.5959C54.4093 58.0551 54.2741 57.9821 54.1903 57.8361L52.9571 55.9579C52.9111 55.8876 52.8597 55.8376 52.8029 55.8078C52.7489 55.7781 52.6677 55.7632 52.5596 55.7632H52.0931V58.0551H51.0019V52.1895H52.7908C53.1883 52.1895 53.529 52.2314 53.813 52.3152C54.0997 52.3964 54.3336 52.5113 54.5148 52.66C54.6987 52.8088 54.8339 52.9872 54.9204 53.1955C55.007 53.401 55.0502 53.6282 55.0502 53.877C55.0502 54.0744 55.0205 54.261 54.961 54.4368C54.9042 54.6125 54.8204 54.7721 54.7095 54.9154C54.6013 55.0587 54.4661 55.1845 54.3038 55.2927C54.1443 55.4008 53.9617 55.486 53.7562 55.5482C53.8265 55.5888 53.8914 55.6375 53.9509 55.6943C54.0104 55.7483 54.0645 55.8132 54.1132 55.889L55.5816 58.0551ZM57.3103 53.0576V54.6842H59.3629V55.5239H57.3103V57.183H59.9146V58.0551H56.2151V52.1895H59.9146V53.0576H57.3103ZM67.2421 52.1895V58.0551H66.2807V54.2664C66.2807 54.1149 66.2888 53.9513 66.3051 53.7755L64.5324 57.1059C64.4486 57.2655 64.3201 57.3452 64.147 57.3452H63.9929C63.8198 57.3452 63.6913 57.2655 63.6075 57.1059L61.8146 53.7634C61.8227 53.8526 61.8294 53.9405 61.8348 54.027C61.8403 54.1136 61.843 54.1934 61.843 54.2664V58.0551H60.8816V52.1895H61.705C61.7537 52.1895 61.7956 52.1908 61.8308 52.1935C61.8659 52.1962 61.897 52.203 61.9241 52.2138C61.9538 52.2246 61.9795 52.2422 62.0012 52.2665C62.0255 52.2909 62.0485 52.3233 62.0701 52.3639L63.8266 55.6212C63.8725 55.7078 63.9145 55.797 63.9523 55.889C63.9929 55.9809 64.0321 56.0756 64.07 56.1729C64.1078 56.0729 64.147 55.9769 64.1876 55.8849C64.2282 55.7903 64.2714 55.6997 64.3174 55.6131L66.0495 52.3639C66.0711 52.3233 66.0941 52.2909 66.1185 52.2665C66.1428 52.2422 66.1685 52.2246 66.1955 52.2138C66.2253 52.203 66.2577 52.1962 66.2929 52.1935C66.328 52.1908 66.37 52.1895 66.4186 52.1895H67.2421ZM69.6461 58.0551H68.5508V52.1895H69.6461V58.0551ZM73.3202 57.1749C73.5311 57.1749 73.7191 57.1397 73.8841 57.0694C74.0517 56.9991 74.1923 56.9004 74.3059 56.7733C74.4195 56.6462 74.506 56.492 74.5655 56.3108C74.6277 56.1296 74.6588 55.9268 74.6588 55.7024V52.1895H75.75V55.7024C75.75 56.0512 75.6932 56.3744 75.5797 56.6719C75.4688 56.9666 75.3079 57.2222 75.0969 57.4385C74.8887 57.6522 74.6345 57.8198 74.3343 57.9415C74.0341 58.0605 73.6961 58.12 73.3202 58.12C72.9416 58.12 72.6022 58.0605 72.302 57.9415C72.0019 57.8198 71.7463 57.6522 71.5354 57.4385C71.3271 57.2222 71.1662 56.9666 71.0526 56.6719C70.9418 56.3744 70.8863 56.0512 70.8863 55.7024V52.1895H71.9775V55.6983C71.9775 55.9228 72.0073 56.1256 72.0668 56.3068C72.129 56.488 72.2168 56.6435 72.3304 56.7733C72.4467 56.9004 72.5873 56.9991 72.7523 57.0694C72.92 57.1397 73.1093 57.1749 73.3202 57.1749ZM83.3412 52.1895V58.0551H82.3798V54.2664C82.3798 54.1149 82.3879 53.9513 82.4041 53.7755L80.6315 57.1059C80.5476 57.2655 80.4192 57.3452 80.2461 57.3452H80.092C79.9189 57.3452 79.7904 57.2655 79.7066 57.1059L77.9136 53.7634C77.9218 53.8526 77.9285 53.9405 77.9339 54.027C77.9393 54.1136 77.942 54.1934 77.942 54.2664V58.0551H76.9807V52.1895H77.8041C77.8528 52.1895 77.8947 52.1908 77.9299 52.1935C77.965 52.1962 77.9961 52.203 78.0232 52.2138C78.0529 52.2246 78.0786 52.2422 78.1002 52.2665C78.1246 52.2909 78.1476 52.3233 78.1692 52.3639L79.9256 55.6212C79.9716 55.7078 80.0135 55.797 80.0514 55.889C80.092 55.9809 80.1312 56.0756 80.169 56.1729C80.2069 56.0729 80.2461 55.9769 80.2867 55.8849C80.3272 55.7903 80.3705 55.6997 80.4165 55.6131L82.1486 52.3639C82.1702 52.3233 82.1932 52.2909 82.2175 52.2665C82.2419 52.2422 82.2676 52.2246 82.2946 52.2138C82.3244 52.203 82.3568 52.1962 82.392 52.1935C82.4271 52.1908 82.469 52.1895 82.5177 52.1895H83.3412ZM89.4524 55.8403L88.7385 53.8891C88.7033 53.8026 88.6668 53.6998 88.629 53.5808C88.5911 53.4618 88.5533 53.3334 88.5154 53.1955C88.4802 53.3334 88.4437 53.4632 88.4059 53.5849C88.368 53.7039 88.3315 53.808 88.2963 53.8972L87.5865 55.8403H89.4524ZM91.3793 58.0551H90.5355C90.4409 58.0551 90.3638 58.0321 90.3043 57.9862C90.2448 57.9375 90.2002 57.878 90.1704 57.8077L89.7323 56.611H87.3025L86.8644 57.8077C86.8428 57.8699 86.8009 57.9267 86.7387 57.978C86.6765 58.0294 86.5994 58.0551 86.5074 58.0551H85.6556L87.9637 52.1895H89.0752L91.3793 58.0551ZM95.8402 56.6719C95.8996 56.6719 95.9524 56.6948 95.9984 56.7408L96.4283 57.2073C96.1904 57.5021 95.8969 57.7279 95.5481 57.8847C95.2019 58.0416 94.7855 58.12 94.2987 58.12C93.8633 58.12 93.4712 58.0456 93.1223 57.8969C92.7762 57.7482 92.4801 57.5413 92.234 57.2763C91.9879 57.0113 91.7986 56.6948 91.6661 56.3271C91.5362 55.9593 91.4713 55.5577 91.4713 55.1223C91.4713 54.6815 91.5417 54.2785 91.6823 53.9135C91.8229 53.5457 92.0203 53.2293 92.2745 52.9643C92.5314 52.6992 92.837 52.4937 93.1913 52.3477C93.5455 52.1989 93.9377 52.1246 94.3677 52.1246C94.7949 52.1246 95.1735 52.1949 95.5035 52.3355C95.8361 52.4761 96.1187 52.66 96.3513 52.8872L95.9862 53.3942C95.9646 53.4267 95.9362 53.4551 95.901 53.4794C95.8685 53.5038 95.8226 53.5159 95.7631 53.5159C95.7225 53.5159 95.6806 53.5051 95.6373 53.4835C95.5941 53.4591 95.5467 53.4307 95.4954 53.3983C95.444 53.3631 95.3845 53.3253 95.3169 53.2847C95.2493 53.2442 95.1708 53.2076 95.0816 53.1752C94.9924 53.14 94.8882 53.1116 94.7692 53.09C94.653 53.0657 94.5177 53.0535 94.3636 53.0535C94.1013 53.0535 93.8606 53.1008 93.6416 53.1955C93.4252 53.2874 93.2386 53.4226 93.0818 53.6011C92.9249 53.7769 92.8032 53.9932 92.7167 54.2502C92.6301 54.5044 92.5869 54.7951 92.5869 55.1223C92.5869 55.4522 92.6328 55.7456 92.7248 56.0025C92.8194 56.2595 92.9465 56.4758 93.1061 56.6516C93.2657 56.8274 93.4536 56.9626 93.6699 57.0572C93.8863 57.1492 94.1189 57.1951 94.3677 57.1951C94.5164 57.1951 94.6503 57.187 94.7692 57.1708C94.8909 57.1546 95.0018 57.1289 95.1019 57.0937C95.2046 57.0586 95.3006 57.014 95.3899 56.9599C95.4818 56.9031 95.5724 56.8341 95.6617 56.753C95.6887 56.7287 95.7171 56.7097 95.7469 56.6962C95.7766 56.68 95.8077 56.6719 95.8402 56.6719ZM101.077 56.6719C101.137 56.6719 101.189 56.6948 101.235 56.7408L101.665 57.2073C101.427 57.5021 101.134 57.7279 100.785 57.8847C100.439 58.0416 100.022 58.12 99.5357 58.12C99.1003 58.12 98.7081 58.0456 98.3593 57.8969C98.0131 57.7482 97.717 57.5413 97.4709 57.2763C97.2248 57.0113 97.0355 56.6948 96.903 56.3271C96.7732 55.9593 96.7083 55.5577 96.7083 55.1223C96.7083 54.6815 96.7786 54.2785 96.9192 53.9135C97.0599 53.5457 97.2573 53.2293 97.5115 52.9643C97.7684 52.6992 98.074 52.4937 98.4282 52.3477C98.7825 52.1989 99.1746 52.1246 99.6046 52.1246C100.032 52.1246 100.41 52.1949 100.74 52.3355C101.073 52.4761 101.356 52.66 101.588 52.8872L101.223 53.3942C101.202 53.4267 101.173 53.4551 101.138 53.4794C101.106 53.5038 101.06 53.5159 101 53.5159C100.959 53.5159 100.918 53.5051 100.874 53.4835C100.831 53.4591 100.784 53.4307 100.732 53.3983C100.681 53.3631 100.621 53.3253 100.554 53.2847C100.486 53.2442 100.408 53.2076 100.319 53.1752C100.229 53.14 100.125 53.1116 100.006 53.09C99.8899 53.0657 99.7547 53.0535 99.6006 53.0535C99.3382 53.0535 99.0976 53.1008 98.8785 53.1955C98.6622 53.2874 98.4756 53.4226 98.3187 53.6011C98.1619 53.7769 98.0402 53.9932 97.9536 54.2502C97.8671 54.5044 97.8238 54.7951 97.8238 55.1223C97.8238 55.4522 97.8698 55.7456 97.9617 56.0025C98.0564 56.2595 98.1835 56.4758 98.3431 56.6516C98.5026 56.8274 98.6906 56.9626 98.9069 57.0572C99.1232 57.1492 99.3558 57.1951 99.6046 57.1951C99.7533 57.1951 99.8872 57.187 100.006 57.1708C100.128 57.1546 100.239 57.1289 100.339 57.0937C100.442 57.0586 100.538 57.014 100.627 56.9599C100.719 56.9031 100.809 56.8341 100.899 56.753C100.926 56.7287 100.954 56.7097 100.984 56.6962C101.014 56.68 101.045 56.6719 101.077 56.6719ZM107.88 55.1223C107.88 55.5523 107.808 55.9512 107.665 56.3189C107.524 56.684 107.324 57.0004 107.065 57.2682C106.805 57.5359 106.493 57.7455 106.127 57.8969C105.762 58.0456 105.357 58.12 104.911 58.12C104.467 58.12 104.063 58.0456 103.698 57.8969C103.333 57.7455 103.019 57.5359 102.757 57.2682C102.497 57.0004 102.295 56.684 102.152 56.3189C102.009 55.9512 101.937 55.5523 101.937 55.1223C101.937 54.6923 102.009 54.2948 102.152 53.9297C102.295 53.5619 102.497 53.2442 102.757 52.9764C103.019 52.7087 103.333 52.5005 103.698 52.3517C104.063 52.2003 104.467 52.1246 104.911 52.1246C105.208 52.1246 105.488 52.1597 105.75 52.23C106.013 52.2976 106.253 52.395 106.472 52.5221C106.691 52.6465 106.887 52.7993 107.06 52.9805C107.236 53.159 107.385 53.3591 107.507 53.5808C107.628 53.8026 107.72 54.0433 107.783 54.3029C107.847 54.5625 107.88 54.8356 107.88 55.1223ZM106.764 55.1223C106.764 54.8005 106.721 54.5125 106.635 54.2583C106.548 54.0014 106.425 53.7837 106.265 53.6052C106.106 53.4267 105.911 53.2901 105.681 53.1955C105.454 53.1008 105.197 53.0535 104.911 53.0535C104.624 53.0535 104.366 53.1008 104.136 53.1955C103.909 53.2901 103.714 53.4267 103.552 53.6052C103.392 53.7837 103.269 54.0014 103.182 54.2583C103.096 54.5125 103.053 54.8005 103.053 55.1223C103.053 55.4441 103.096 55.7335 103.182 55.9904C103.269 56.2446 103.392 56.4609 103.552 56.6394C103.714 56.8152 103.909 56.9504 104.136 57.0451C104.366 57.1397 104.624 57.187 104.911 57.187C105.197 57.187 105.454 57.1397 105.681 57.0451C105.911 56.9504 106.106 56.8152 106.265 56.6394C106.425 56.4609 106.548 56.2446 106.635 55.9904C106.721 55.7335 106.764 55.4441 106.764 55.1223ZM111.199 57.1749C111.41 57.1749 111.598 57.1397 111.763 57.0694C111.931 56.9991 112.071 56.9004 112.185 56.7733C112.298 56.6462 112.385 56.492 112.444 56.3108C112.507 56.1296 112.538 55.9268 112.538 55.7024V52.1895H113.629V55.7024C113.629 56.0512 113.572 56.3744 113.458 56.6719C113.348 56.9666 113.187 57.2222 112.976 57.4385C112.767 57.6522 112.513 57.8198 112.213 57.9415C111.913 58.0605 111.575 58.12 111.199 58.12C110.82 58.12 110.481 58.0605 110.181 57.9415C109.881 57.8198 109.625 57.6522 109.414 57.4385C109.206 57.2222 109.045 56.9666 108.931 56.6719C108.821 56.3744 108.765 56.0512 108.765 55.7024V52.1895H109.856V55.6983C109.856 55.9228 109.886 56.1256 109.946 56.3068C110.008 56.488 110.096 56.6435 110.209 56.7733C110.325 56.9004 110.466 56.9991 110.631 57.0694C110.799 57.1397 110.988 57.1749 111.199 57.1749ZM119.804 52.1895V58.0551H119.244C119.158 58.0551 119.085 58.0416 119.025 58.0146C118.969 57.9848 118.913 57.9361 118.859 57.8685L115.796 53.9581C115.813 54.1366 115.821 54.3015 115.821 54.453V58.0551H114.859V52.1895H115.431C115.477 52.1895 115.517 52.1922 115.549 52.1976C115.584 52.2003 115.614 52.2084 115.638 52.2219C115.665 52.2327 115.691 52.2503 115.715 52.2747C115.74 52.2963 115.767 52.326 115.796 52.3639L118.871 56.2906C118.863 56.1959 118.856 56.1026 118.851 56.0107C118.846 55.9187 118.843 55.8335 118.843 55.7551V52.1895H119.804ZM125.208 53.086H123.439V58.0551H122.348V53.086H120.579V52.1895H125.208V53.086Z" fill="white" fill-opacity="0.39"/>
<path d="M157.825 170.651L157.822 171.272H154.627V166.118H157.822V166.739H155.396V168.372H157.348V168.971H155.396V170.651H157.825ZM161.684 171.272H161.01C160.955 171.272 160.91 171.257 160.877 171.229C160.846 171.198 160.821 171.165 160.801 171.132L159.922 169.743C159.91 169.779 159.898 169.814 159.886 169.847C159.874 169.881 159.859 169.912 159.84 169.94L159.032 171.132C159.008 171.165 158.981 171.198 158.95 171.229C158.918 171.257 158.878 171.272 158.828 171.272H158.203L159.474 169.395L158.253 167.625H158.928C158.983 167.625 159.023 167.634 159.046 167.651C159.073 167.667 159.096 167.692 159.115 167.726L159.98 169.057C159.992 169.022 160.005 168.987 160.019 168.953C160.033 168.917 160.053 168.88 160.076 168.842L160.819 167.74C160.862 167.664 160.92 167.625 160.992 167.625H161.634L160.414 169.363L161.684 171.272ZM162.943 170.375C163.058 170.525 163.181 170.631 163.313 170.69C163.447 170.75 163.596 170.78 163.762 170.78C164.082 170.78 164.33 170.665 164.504 170.436C164.682 170.203 164.77 169.866 164.77 169.424C164.77 169.191 164.75 168.994 164.709 168.831C164.671 168.666 164.613 168.532 164.537 168.429C164.463 168.324 164.37 168.248 164.26 168.2C164.15 168.149 164.026 168.124 163.887 168.124C163.684 168.124 163.507 168.17 163.356 168.261C163.208 168.352 163.07 168.481 162.943 168.648V170.375ZM162.907 168.171C162.984 168.08 163.065 167.998 163.151 167.923C163.24 167.847 163.334 167.782 163.435 167.73C163.535 167.675 163.642 167.633 163.754 167.604C163.869 167.573 163.991 167.557 164.12 167.557C164.329 167.557 164.516 167.598 164.684 167.679C164.854 167.761 164.999 167.88 165.118 168.038C165.238 168.196 165.33 168.391 165.395 168.623C165.462 168.855 165.495 169.122 165.495 169.424C165.495 169.694 165.458 169.945 165.384 170.177C165.312 170.407 165.208 170.607 165.072 170.777C164.938 170.946 164.772 171.08 164.576 171.178C164.382 171.274 164.164 171.322 163.919 171.322C163.702 171.322 163.515 171.286 163.36 171.214C163.204 171.143 163.065 171.042 162.943 170.913V172.496H162.243V167.625H162.663C162.761 167.625 162.822 167.672 162.846 167.765L162.907 168.171ZM167.013 167.625V171.272H166.313V167.625H167.013ZM167.146 166.499C167.146 166.563 167.133 166.625 167.106 166.685C167.08 166.743 167.044 166.794 166.999 166.84C166.956 166.883 166.904 166.917 166.844 166.944C166.785 166.968 166.722 166.979 166.658 166.979C166.593 166.979 166.532 166.968 166.475 166.944C166.417 166.917 166.366 166.883 166.32 166.84C166.277 166.794 166.243 166.743 166.216 166.685C166.192 166.625 166.18 166.563 166.18 166.499C166.18 166.432 166.192 166.369 166.216 166.312C166.243 166.252 166.277 166.201 166.32 166.158C166.366 166.112 166.417 166.077 166.475 166.054C166.532 166.027 166.593 166.014 166.658 166.014C166.722 166.014 166.785 166.027 166.844 166.054C166.904 166.077 166.956 166.112 166.999 166.158C167.044 166.201 167.08 166.252 167.106 166.312C167.133 166.369 167.146 166.432 167.146 166.499ZM168.687 168.325C168.804 168.086 168.945 167.898 169.11 167.762C169.275 167.625 169.474 167.557 169.706 167.557C169.785 167.557 169.859 167.567 169.928 167.586C170 167.603 170.062 167.629 170.115 167.665L170.068 168.193C170.052 168.257 170.012 168.289 169.95 168.289C169.916 168.289 169.866 168.283 169.799 168.271C169.732 168.257 169.66 168.25 169.584 168.25C169.471 168.25 169.372 168.267 169.286 168.3C169.2 168.331 169.122 168.379 169.053 168.444C168.986 168.506 168.926 168.584 168.873 168.677C168.821 168.768 168.772 168.872 168.726 168.989V171.272H168.026V167.625H168.428C168.505 167.625 168.556 167.64 168.583 167.669C168.611 167.695 168.632 167.743 168.644 167.812L168.687 168.325ZM172.937 169.043C172.937 168.904 172.917 168.776 172.876 168.659C172.838 168.542 172.78 168.44 172.704 168.354C172.627 168.268 172.534 168.201 172.424 168.153C172.314 168.105 172.187 168.081 172.043 168.081C171.749 168.081 171.517 168.166 171.347 168.336C171.18 168.506 171.073 168.742 171.028 169.043H172.937ZM173.515 170.751C173.429 170.852 173.329 170.939 173.217 171.013C173.105 171.085 172.985 171.144 172.858 171.189C172.731 171.235 172.6 171.268 172.463 171.29C172.329 171.311 172.197 171.322 172.065 171.322C171.814 171.322 171.58 171.28 171.365 171.196C171.152 171.11 170.967 170.986 170.809 170.823C170.653 170.658 170.531 170.455 170.443 170.213C170.357 169.969 170.314 169.689 170.314 169.373C170.314 169.12 170.353 168.884 170.432 168.666C170.511 168.446 170.623 168.255 170.769 168.092C170.918 167.929 171.098 167.801 171.311 167.708C171.524 167.615 171.763 167.568 172.029 167.568C172.252 167.568 172.456 167.605 172.643 167.679C172.832 167.751 172.994 167.856 173.131 167.995C173.267 168.134 173.374 168.305 173.45 168.508C173.529 168.712 173.569 168.944 173.569 169.205C173.569 169.312 173.557 169.385 173.533 169.424C173.509 169.459 173.465 169.477 173.4 169.477H171.01C171.017 169.695 171.048 169.885 171.103 170.048C171.158 170.208 171.234 170.342 171.329 170.45C171.427 170.558 171.543 170.638 171.677 170.69C171.811 170.743 171.961 170.769 172.126 170.769C172.281 170.769 172.415 170.751 172.528 170.716C172.643 170.68 172.741 170.641 172.822 170.601C172.906 170.558 172.975 170.518 173.03 170.482C173.088 170.446 173.138 170.428 173.181 170.428C173.239 170.428 173.283 170.45 173.314 170.493L173.515 170.751ZM178.487 168.508C178.372 168.358 178.248 168.252 178.114 168.193C177.982 168.133 177.834 168.103 177.669 168.103C177.348 168.103 177.099 168.219 176.922 168.451C176.748 168.681 176.66 169.017 176.66 169.459C176.66 169.691 176.679 169.89 176.718 170.055C176.758 170.218 176.816 170.352 176.89 170.457C176.967 170.56 177.06 170.637 177.17 170.687C177.28 170.735 177.404 170.759 177.543 170.759C177.747 170.759 177.922 170.713 178.071 170.622C178.219 170.531 178.358 170.403 178.487 170.238V168.508ZM179.19 165.975V171.272H178.767C178.669 171.272 178.608 171.225 178.584 171.132L178.523 170.712C178.367 170.896 178.19 171.044 177.992 171.157C177.796 171.267 177.568 171.322 177.31 171.322C177.102 171.322 176.913 171.281 176.743 171.2C176.575 171.119 176.432 171 176.312 170.845C176.193 170.687 176.1 170.492 176.036 170.26C175.971 170.028 175.939 169.761 175.939 169.459C175.939 169.189 175.975 168.938 176.047 168.706C176.118 168.474 176.222 168.273 176.359 168.103C176.495 167.933 176.66 167.8 176.854 167.704C177.048 167.606 177.267 167.557 177.511 167.557C177.731 167.557 177.918 167.593 178.071 167.665C178.226 167.737 178.365 167.838 178.487 167.97V165.975H179.19ZM182.126 169.653C181.842 169.663 181.6 169.686 181.401 169.721C181.203 169.755 181.041 169.8 180.917 169.858C180.793 169.915 180.703 169.983 180.648 170.062C180.593 170.139 180.565 170.225 180.565 170.321C180.565 170.412 180.58 170.491 180.608 170.558C180.639 170.622 180.68 170.676 180.73 170.719C180.783 170.76 180.844 170.79 180.913 170.809C180.983 170.828 181.058 170.838 181.139 170.838C181.247 170.838 181.345 170.827 181.434 170.805C181.525 170.784 181.61 170.754 181.689 170.716C181.767 170.675 181.843 170.626 181.915 170.568C181.986 170.511 182.057 170.445 182.126 170.371V169.653ZM180.074 168.135C180.277 167.941 180.497 167.797 180.734 167.701C180.973 167.605 181.235 167.557 181.52 167.557C181.728 167.557 181.912 167.592 182.073 167.661C182.233 167.728 182.368 167.823 182.478 167.945C182.588 168.067 182.671 168.213 182.726 168.383C182.783 168.553 182.812 168.74 182.812 168.946V171.272H182.5C182.43 171.272 182.378 171.261 182.342 171.239C182.306 171.216 182.277 171.172 182.256 171.11L182.18 170.791C182.087 170.877 181.995 170.954 181.904 171.021C181.813 171.085 181.717 171.141 181.617 171.189C181.519 171.235 181.413 171.269 181.301 171.293C181.188 171.317 181.064 171.329 180.928 171.329C180.784 171.329 180.649 171.31 180.522 171.272C180.398 171.231 180.289 171.17 180.196 171.089C180.102 171.007 180.028 170.906 179.973 170.784C179.92 170.662 179.894 170.519 179.894 170.357C179.894 170.213 179.932 170.075 180.009 169.944C180.088 169.81 180.215 169.69 180.389 169.585C180.566 169.48 180.796 169.394 181.078 169.327C181.363 169.26 181.712 169.221 182.126 169.212V168.946C182.126 168.671 182.068 168.465 181.951 168.329C181.833 168.193 181.661 168.124 181.434 168.124C181.281 168.124 181.151 168.143 181.046 168.182C180.943 168.22 180.854 168.263 180.777 168.311C180.703 168.356 180.637 168.398 180.58 168.437C180.525 168.475 180.467 168.494 180.407 168.494C180.359 168.494 180.318 168.481 180.282 168.455C180.248 168.428 180.221 168.397 180.199 168.361L180.074 168.135ZM184.841 171.329C184.547 171.329 184.319 171.247 184.159 171.082C184.001 170.916 183.922 170.681 183.922 170.375V168.193H183.499C183.458 168.193 183.423 168.181 183.395 168.157C183.368 168.13 183.355 168.092 183.355 168.042V167.758L183.947 167.676L184.105 166.588C184.115 166.548 184.133 166.517 184.159 166.495C184.188 166.471 184.224 166.459 184.267 166.459H184.622V167.683H185.656V168.193H184.622V170.328C184.622 170.471 184.657 170.579 184.726 170.651C184.798 170.72 184.889 170.755 184.999 170.755C185.063 170.755 185.118 170.747 185.164 170.73C185.212 170.713 185.252 170.695 185.286 170.676C185.319 170.655 185.348 170.635 185.372 170.619C185.396 170.602 185.418 170.593 185.437 170.593C185.461 170.593 185.479 170.599 185.49 170.611C185.505 170.621 185.519 170.638 185.534 170.662L185.742 170.999C185.627 171.104 185.49 171.186 185.333 171.243C185.175 171.301 185.011 171.329 184.841 171.329ZM188.694 169.043C188.694 168.904 188.674 168.776 188.633 168.659C188.595 168.542 188.538 168.44 188.461 168.354C188.385 168.268 188.291 168.201 188.181 168.153C188.071 168.105 187.944 168.081 187.801 168.081C187.507 168.081 187.274 168.166 187.105 168.336C186.937 168.506 186.831 168.742 186.785 169.043H188.694ZM189.272 170.751C189.186 170.852 189.087 170.939 188.974 171.013C188.862 171.085 188.742 171.144 188.616 171.189C188.489 171.235 188.357 171.268 188.221 171.29C188.087 171.311 187.954 171.322 187.822 171.322C187.571 171.322 187.338 171.28 187.123 171.196C186.91 171.11 186.724 170.986 186.566 170.823C186.411 170.658 186.289 170.455 186.2 170.213C186.114 169.969 186.071 169.689 186.071 169.373C186.071 169.12 186.11 168.884 186.189 168.666C186.268 168.446 186.381 168.255 186.527 168.092C186.675 167.929 186.856 167.801 187.069 167.708C187.282 167.615 187.521 167.568 187.786 167.568C188.009 167.568 188.214 167.605 188.4 167.679C188.589 167.751 188.752 167.856 188.888 167.995C189.025 168.134 189.131 168.305 189.208 168.508C189.287 168.712 189.326 168.944 189.326 169.205C189.326 169.312 189.314 169.385 189.29 169.424C189.266 169.459 189.222 169.477 189.157 169.477H186.767C186.774 169.695 186.806 169.885 186.861 170.048C186.916 170.208 186.991 170.342 187.087 170.45C187.185 170.558 187.301 170.638 187.435 170.69C187.569 170.743 187.718 170.769 187.883 170.769C188.039 170.769 188.173 170.751 188.285 170.716C188.4 170.68 188.498 170.641 188.58 170.601C188.663 170.558 188.733 170.518 188.788 170.482C188.845 170.446 188.895 170.428 188.939 170.428C188.996 170.428 189.04 170.45 189.071 170.493L189.272 170.751Z" fill="white"/>
</g>
<defs>
<filter id="filter0_ddd_1_209" x="0.440491" y="0.430969" width="368.425" height="254.172" filterUnits="userSpaceOnUse" color-interpolation-filters="sRGB">
<feFlood flood-opacity="0" result="BackgroundImageFix"/>
<feColorMatrix in="SourceAlpha" type="matrix" values="0 0 0 0 0 0 0 0 0 0 0 0 0 0 0 0 0 0 127 0" result="hardAlpha"/>
<feOffset/>
<feGaussianBlur stdDeviation="0.5"/>
<feColorMatrix type="matrix" values="0 0 0 0 0 0 0 0 0 0 0 0 0 0 0 0 0 0 0.04 0"/>
<feBlend mode="normal" in2="BackgroundImageFix" result="effect1_dropShadow_1_209"/>
<feColorMatrix in="SourceAlpha" type="matrix" values="0 0 0 0 0 0 0 0 0 0 0 0 0 0 0 0 0 0 127 0" result="hardAlpha"/>
<feOffset dy="2"/>
<feGaussianBlur stdDeviation="3"/>
<feColorMatrix type="matrix" values="0 0 0 0 0 0 0 0 0 0 0 0 0 0 0 0 0 0 0.04 0"/>
<feBlend mode="normal" in2="effect1_dropShadow_1_209" result="effect2_dropShadow_1_209"/>
<feColorMatrix in="SourceAlpha" type="matrix" values="0 0 0 0 0 0 0 0 0 0 0 0 0 0 0 0 0 0 127 0" result="hardAlpha"/>
<feOffset dy="16"/>
<feGaussianBlur stdDeviation="12"/>
<feColorMatrix type="matrix" values="0 0 0 0 0 0 0 0 0 0 0 0 0 0 0 0 0 0 0.06 0"/>
<feBlend mode="normal" in2="effect2_dropShadow_1_209" result="effect3_dropShadow_1_209"/>
<feBlend mode="normal" in="SourceGraphic" in2="effect3_dropShadow_1_209" result="shape"/>
</filter>
<linearGradient id="paint0_linear_1_209" x1="184.653" y1="8.43097" x2="184.653" y2="214.603" gradientUnits="userSpaceOnUse">
<stop stop-color="#197BBD"/>
<stop offset="1" stop-color="#3391D0"/>
</linearGradient>
<linearGradient id="paint1_linear_1_209" x1="184.653" y1="8.43097" x2="184.653" y2="214.603" gradientUnits="userSpaceOnUse">
<stop stop-color="#197BBD"/>
<stop offset="1" stop-color="#3391D0"/>
</linearGradient>
</defs>
</svg>
